# xmcd
# 
# Track frame offsets:
#     187
#     13625
#     24800
#     34550
#     44900
#     56450
#     70025
#     84125
#     97325
#     104750
#     120725
#     133775
#     145325
# 
# Disc length: 2044
# 
# Revision: 4
# Processed by: cddbd v1.5.2PL0 Copyright (c) Steve Scherf et al.
# Submitted via: fre:ac v1.0.31
# 
DISCID=b107fa0d
DTITLE=Buffy Sainte-Marie - I'm Gonna Be A Country Girl Again
DYEAR=1968
DGENRE=Country
TTITLE0=I'm Gonna Be a Country Girl Again
TTITLE1=He's a Pretty Good Man If You Ask Me
TTITLE2=Uncle Joe
TTITLE3=A Soulful Shade of Blue
TTITLE4=From the Bottom of My Heart
TTITLE5=Sometimes When I Get to Thinkin'
TTITLE6=The Piney Wood Hills
TTITLE7=Now That the Buffalo's Gone
TTITLE8=They Gotta Quit Kickin' My Dawg Around
TTITLE9=Tall Trees in Georgia
TTITLE10=The Love of a Good Man
TTITLE11=Take My Hand For Awhile
TTITLE12=Gonna Feel Much Better When You're Gone
EXTD=YEAR: 1968 ID3G: 2
EXTT0=
EXTT1=
EXTT2=
EXTT3=
EXTT4=
EXTT5=
EXTT6=
EXTT7=
EXTT8=
EXTT9=
EXTT10=
EXTT11=
EXTT12=
PLAYORDER=
